# xmcd
#
# Track frame offsets:
#	150
#	14615
#	28912
#	43115
#	57525
#	71532
#	85942
#	99770
#	113982
#	128010
#	141340
#	156777
#	172037
#	186692
#	202027
#	217957
#	233527
#	246422
#	260465
#	275180
#	289462
#	304025
#	317020
#
# Disc length: 4412 seconds
#
# Revision: 1
# Processed by: cddbd v1.5PL3 Copyright (c) Steve Scherf et al.
# Submitted via: audiograbber 1.83.01
#
DISCID=67113a17
DTITLE=Barbecue Bob (Robert Hicks) - Complete Recorded Works Vol 1 (25 March 19
DTITLE=27 to 13 April 1928)
DYEAR=1991
DGENRE=Blues
TTITLE0=Barbecue Blues
TTITLE1=Cloudy Sky Blues
TTITLE2=Mississippi Heavy Water Blues
TTITLE3=Mamma You Don't Suit Me
TTITLE4=Brown-Skin Gal
TTITLE5=Honey You Don't Know My mind
TTITLE6=Poor Boy A Long Ways From Home
TTITLE7=When The Saints Go Marching In
TTITLE8=Jesus Blood Can Make Me Whole
TTITLE9=Easy Rider Don't You Deny My Name
TTITLE10=Thinkin Funny Blues
TTITLE11=My Mistake Blues
TTITLE12=Motherless Chile Blues
TTITLE13=How Long Pretty Mama
TTITLE14=It Won't Be Long Now - Part 1
TTITLE15=It Won't Be Long Now - Part 2
TTITLE16=Crooked Woman Blues
TTITLE17=Fo Day Creep
TTITLE18=Blind Pig Blues
TTITLE19=Waycross Georgia Blues
TTITLE20=Going Up The Country
TTITLE21=Chocolate To The Bone
TTITLE22=Hurry and Bring It Back Home
EXTD=Document Records DOCD-5046
EXTT0=
EXTT1=
EXTT2=
EXTT3=
EXTT4=
EXTT5=
EXTT6=
EXTT7=
EXTT8=
EXTT9=
EXTT10=
EXTT11=
EXTT12=
EXTT13=
EXTT14=
EXTT15=
EXTT16=
EXTT17=
EXTT18=
EXTT19=
EXTT20=
EXTT21=
EXTT22=
PLAYORDER=
